<?xml version="1.0" encoding="UTF-8"?>
<svg xmlns="http://www.w3.org/2000/svg" xmlns:xlink="http://www.w3.org/1999/xlink" width="16px" height="16px" viewBox="0 0 16 16" version="1.1">
<g id="surface1">
<path style=" stroke:none;fill-rule:nonzero;fill:rgb(0%,0%,0%);fill-opacity:1;" d="M 4.460938 0.414062 C 4.335938 0.523438 3.53125 1.621094 3.441406 1.8125 C 3.367188 1.964844 3.359375 2.023438 3.359375 2.332031 C 3.359375 2.664062 3.363281 2.679688 3.476562 2.914062 C 3.621094 3.207031 3.847656 3.421875 4.136719 3.550781 L 4.34375 3.636719 L 4.34375 4.054688 L 4.21875 4.109375 C 4.058594 4.179688 3.828125 4.429688 3.742188 4.617188 C 3.675781 4.757812 3.671875 4.8125 3.664062 5.882812 L 3.652344 7 L 3.242188 7 C 2.789062 7 2.542969 7.042969 2.273438 7.171875 C 1.957031 7.320312 1.632812 7.648438 1.492188 7.96875 C 1.347656 8.289062 1.34375 8.332031 1.34375 10.15625 L 1.34375 11.890625 L 1.433594 12.078125 C 1.527344 12.28125 1.757812 12.515625 1.90625 12.566406 L 1.996094 12.601562 L 2.007812 13.617188 C 2.015625 14.582031 2.019531 14.648438 2.085938 14.804688 C 2.234375 15.175781 2.539062 15.460938 2.914062 15.59375 C 3.089844 15.65625 3.175781 15.65625 7.992188 15.65625 C 13.441406 15.65625 13.039062 15.671875 13.398438 15.441406 C 13.613281 15.300781 13.816406 15.054688 13.914062 14.804688 C 13.976562 14.660156 13.984375 14.566406 13.992188 13.960938 L 14.007812 13.28125 L 14.132812 13.214844 C 14.320312 13.117188 14.519531 12.898438 14.59375 12.699219 C 14.65625 12.527344 14.65625 12.488281 14.648438 10.410156 C 14.640625 8.316406 14.640625 8.292969 14.570312 8.117188 C 14.386719 7.625 14.011719 7.257812 13.53125 7.089844 C 13.363281 7.03125 13.242188 7.019531 12.835938 7.007812 L 12.34375 6.992188 L 12.34375 5.980469 C 12.34375 4.972656 12.324219 4.742188 12.226562 4.550781 C 12.152344 4.402344 11.914062 4.171875 11.78125 4.109375 L 11.65625 4.054688 L 11.65625 3.636719 L 11.863281 3.550781 C 12.152344 3.421875 12.378906 3.207031 12.523438 2.914062 C 12.636719 2.679688 12.640625 2.664062 12.640625 2.332031 C 12.640625 2.023438 12.632812 1.964844 12.558594 1.8125 C 12.464844 1.609375 11.5625 0.394531 11.484375 0.367188 C 11.40625 0.335938 11.261719 0.339844 11.179688 0.378906 C 11.101562 0.414062 10.304688 1.453125 10.171875 1.695312 C 9.792969 2.367188 10.070312 3.207031 10.777344 3.535156 L 11 3.640625 L 11 4.046875 L 10.859375 4.121094 C 10.695312 4.210938 10.535156 4.378906 10.429688 4.570312 C 10.359375 4.699219 10.359375 4.722656 10.351562 5.851562 L 10.339844 7 L 9.003906 7 L 8.992188 5.867188 L 8.984375 4.734375 L 8.90625 4.578125 C 8.816406 4.390625 8.621094 4.191406 8.460938 4.117188 L 8.339844 4.058594 L 8.351562 3.835938 L 8.359375 3.617188 L 8.523438 3.554688 C 8.632812 3.515625 8.761719 3.429688 8.894531 3.304688 C 9.320312 2.910156 9.445312 2.324219 9.222656 1.804688 C 9.148438 1.636719 8.246094 0.421875 8.160156 0.378906 C 8.082031 0.335938 7.917969 0.335938 7.839844 0.378906 C 7.753906 0.421875 6.851562 1.636719 6.777344 1.804688 C 6.632812 2.148438 6.636719 2.550781 6.792969 2.894531 C 6.929688 3.195312 7.277344 3.496094 7.601562 3.605469 C 7.648438 3.617188 7.65625 3.664062 7.65625 3.839844 L 7.65625 4.058594 L 7.539062 4.117188 C 7.378906 4.191406 7.183594 4.390625 7.09375 4.578125 L 7.015625 4.734375 L 7.007812 5.867188 L 6.996094 7 L 5.660156 7 L 5.648438 5.851562 C 5.640625 4.722656 5.640625 4.699219 5.570312 4.570312 C 5.464844 4.378906 5.304688 4.210938 5.140625 4.121094 L 5 4.046875 L 5 3.640625 L 5.226562 3.539062 C 5.929688 3.203125 6.203125 2.367188 5.828125 1.695312 C 5.695312 1.453125 4.898438 0.414062 4.820312 0.378906 C 4.699219 0.320312 4.554688 0.335938 4.460938 0.414062 Z M 5.3125 2.203125 C 5.371094 2.507812 5.242188 2.78125 4.964844 2.917969 C 4.875 2.960938 4.753906 3 4.695312 3 C 4.214844 3 3.871094 2.523438 4.046875 2.101562 C 4.070312 2.039062 4.226562 1.820312 4.382812 1.605469 L 4.667969 1.222656 L 4.976562 1.632812 C 5.214844 1.960938 5.289062 2.078125 5.3125 2.203125 Z M 11.648438 1.644531 C 11.804688 1.851562 11.945312 2.070312 11.964844 2.125 C 12.113281 2.546875 11.769531 3 11.304688 3 C 11.132812 3 10.882812 2.855469 10.78125 2.699219 C 10.582031 2.382812 10.628906 2.167969 11.03125 1.625 C 11.195312 1.402344 11.335938 1.230469 11.347656 1.242188 C 11.359375 1.257812 11.492188 1.4375 11.648438 1.644531 Z M 8.28125 1.59375 C 8.605469 2.027344 8.65625 2.128906 8.65625 2.328125 C 8.652344 3.039062 7.726562 3.253906 7.402344 2.617188 C 7.324219 2.464844 7.324219 2.207031 7.402344 2.054688 C 7.476562 1.910156 7.964844 1.25 8 1.25 C 8.011719 1.25 8.140625 1.40625 8.28125 1.59375 Z M 4.796875 4.699219 C 4.992188 4.785156 5 4.816406 5 5.96875 L 5 7 L 4.34375 7 L 4.34375 5.945312 C 4.34375 4.777344 4.34375 4.789062 4.542969 4.699219 C 4.664062 4.648438 4.667969 4.648438 4.796875 4.699219 Z M 8.140625 4.707031 C 8.335938 4.796875 8.34375 4.847656 8.34375 5.980469 L 8.34375 7 L 7.65625 7 L 7.65625 5.980469 C 7.65625 4.851562 7.664062 4.800781 7.851562 4.707031 C 7.976562 4.644531 8.011719 4.644531 8.140625 4.707031 Z M 11.449219 4.699219 C 11.660156 4.789062 11.65625 4.773438 11.65625 5.945312 L 11.65625 7 L 11 7 L 11 5.96875 C 11 4.820312 11.007812 4.785156 11.195312 4.703125 C 11.320312 4.648438 11.324219 4.648438 11.449219 4.699219 Z M 13.195312 7.691406 C 13.503906 7.757812 13.777344 7.976562 13.914062 8.265625 L 13.984375 8.421875 L 13.992188 10.40625 C 14.003906 12.203125 14 12.398438 13.953125 12.488281 C 13.855469 12.667969 13.601562 12.714844 13.445312 12.582031 L 13.359375 12.507812 L 13.34375 11.804688 C 13.328125 11.132812 13.324219 11.101562 13.242188 10.929688 C 13.132812 10.695312 12.921875 10.492188 12.699219 10.410156 C 12.546875 10.351562 12.460938 10.34375 11.835938 10.34375 C 10.988281 10.34375 10.921875 10.359375 10.640625 10.640625 C 10.351562 10.929688 10.34375 10.957031 10.34375 12.085938 C 10.34375 13.148438 10.335938 13.203125 10.140625 13.292969 C 10.011719 13.355469 9.988281 13.355469 9.863281 13.296875 C 9.671875 13.207031 9.671875 13.207031 9.65625 12.078125 L 9.640625 11.046875 L 9.554688 10.886719 C 9.445312 10.675781 9.203125 10.460938 9 10.398438 C 8.859375 10.351562 8.679688 10.34375 7.652344 10.34375 C 6.558594 10.34375 6.457031 10.347656 6.3125 10.402344 C 6.070312 10.496094 5.894531 10.65625 5.773438 10.898438 L 5.671875 11.109375 L 5.65625 11.804688 L 5.640625 12.507812 L 5.554688 12.582031 C 5.460938 12.664062 5.304688 12.679688 5.179688 12.621094 C 5.027344 12.554688 5.015625 12.496094 5 11.765625 C 4.984375 11.089844 4.980469 11.074219 4.898438 10.898438 C 4.804688 10.707031 4.636719 10.539062 4.429688 10.429688 C 4.246094 10.335938 3.585938 10.308594 3.34375 10.390625 C 3.101562 10.472656 2.898438 10.648438 2.777344 10.890625 C 2.691406 11.070312 2.675781 11.132812 2.664062 11.414062 C 2.648438 11.796875 2.621094 11.882812 2.488281 11.953125 C 2.355469 12.023438 2.195312 11.996094 2.089844 11.886719 L 2.015625 11.804688 L 2.015625 10.132812 C 2.015625 8.554688 2.019531 8.445312 2.074219 8.300781 C 2.183594 8.015625 2.460938 7.773438 2.761719 7.699219 C 2.976562 7.648438 12.945312 7.636719 13.195312 7.691406 Z M 4.160156 11.050781 C 4.320312 11.132812 4.34375 11.242188 4.34375 11.917969 C 4.34375 12.460938 4.351562 12.550781 4.410156 12.699219 C 4.601562 13.210938 5.226562 13.472656 5.71875 13.246094 C 5.964844 13.132812 6.109375 12.992188 6.226562 12.757812 L 6.328125 12.546875 L 6.335938 11.90625 C 6.34375 11.554688 6.359375 11.226562 6.378906 11.183594 C 6.398438 11.136719 6.457031 11.078125 6.507812 11.050781 C 6.601562 11.003906 6.726562 10.996094 7.710938 11.007812 L 8.8125 11.015625 L 8.984375 11.1875 L 9 12.226562 C 9.015625 13.226562 9.019531 13.273438 9.085938 13.40625 C 9.195312 13.632812 9.320312 13.761719 9.539062 13.878906 C 9.71875 13.976562 9.757812 13.984375 10 13.980469 C 10.226562 13.980469 10.289062 13.96875 10.425781 13.898438 C 10.660156 13.777344 10.757812 13.679688 10.878906 13.460938 L 10.984375 13.265625 L 11.015625 11.1875 L 11.1875 11.015625 L 11.789062 11.007812 C 12.445312 10.992188 12.546875 11.015625 12.621094 11.175781 C 12.644531 11.226562 12.65625 11.46875 12.65625 11.820312 C 12.65625 12.570312 12.699219 12.757812 12.949219 13.023438 C 13.003906 13.085938 13.117188 13.164062 13.195312 13.210938 L 13.351562 13.285156 L 13.335938 13.902344 L 13.328125 14.523438 L 13.234375 14.671875 C 13.164062 14.785156 13.09375 14.851562 12.972656 14.914062 L 12.804688 15 L 3.195312 15 L 3.027344 14.914062 C 2.90625 14.851562 2.835938 14.785156 2.765625 14.671875 L 2.671875 14.523438 L 2.664062 13.574219 L 2.652344 12.628906 L 2.78125 12.5625 C 2.960938 12.46875 3.148438 12.273438 3.242188 12.070312 C 3.304688 11.9375 3.320312 11.835938 3.335938 11.585938 C 3.351562 11.210938 3.378906 11.125 3.492188 11.054688 C 3.605469 10.984375 4.027344 10.980469 4.160156 11.050781 Z M 4.160156 11.050781 "/>
</g>
</svg>
