<?xml version="1.0" encoding="UTF-8"?>
<svg xmlns="http://www.w3.org/2000/svg" xmlns:xlink="http://www.w3.org/1999/xlink" width="15px" height="16px" viewBox="0 0 15 15" version="1.1">
<g id="surface1">
<path style=" stroke:none;fill-rule:nonzero;fill:rgb(0%,0%,0%);fill-opacity:1;" d="M 4.179688 0.96875 C 3.992188 1.015625 3.730469 1.171875 3.601562 1.308594 C 3.40625 1.515625 3.304688 1.773438 3.289062 2.082031 L 3.273438 2.34375 L 2.726562 2.34375 C 2.117188 2.34375 1.953125 2.375 1.667969 2.523438 C 1.460938 2.632812 1.207031 2.890625 1.101562 3.101562 C 0.929688 3.4375 0.9375 3.195312 0.9375 7.96875 C 0.9375 12.789062 0.925781 12.507812 1.117188 12.863281 C 1.296875 13.203125 1.695312 13.492188 2.078125 13.5625 C 2.179688 13.582031 3.453125 13.59375 5.660156 13.59375 L 9.082031 13.59375 L 9.289062 13.695312 C 10.242188 14.175781 11.296875 14.175781 12.261719 13.695312 C 13.726562 12.96875 14.417969 11.253906 13.871094 9.695312 C 13.609375 8.941406 13 8.234375 12.3125 7.882812 L 12.1875 7.820312 L 12.1875 5.730469 C 12.1875 4.433594 12.175781 3.578125 12.15625 3.484375 C 12.085938 3.101562 11.796875 2.703125 11.457031 2.523438 C 11.171875 2.375 11.007812 2.34375 10.398438 2.34375 L 9.851562 2.34375 L 9.835938 2.078125 C 9.824219 1.847656 9.804688 1.785156 9.714844 1.601562 C 9.589844 1.34375 9.414062 1.171875 9.148438 1.046875 C 8.96875 0.960938 8.921875 0.953125 8.667969 0.953125 C 8.40625 0.953125 8.378906 0.957031 8.167969 1.0625 C 7.757812 1.265625 7.535156 1.609375 7.507812 2.082031 L 7.492188 2.34375 L 5.632812 2.34375 L 5.617188 2.078125 C 5.605469 1.847656 5.585938 1.785156 5.496094 1.601562 C 5.304688 1.207031 4.949219 0.96875 4.515625 0.949219 C 4.394531 0.945312 4.242188 0.953125 4.179688 0.96875 Z M 4.613281 1.949219 L 4.6875 2.019531 L 4.6875 3.605469 L 4.613281 3.675781 C 4.570312 3.722656 4.507812 3.75 4.453125 3.75 C 4.398438 3.75 4.335938 3.722656 4.292969 3.675781 L 4.21875 3.605469 L 4.21875 2.019531 L 4.292969 1.949219 C 4.335938 1.902344 4.398438 1.875 4.453125 1.875 C 4.507812 1.875 4.570312 1.902344 4.613281 1.949219 Z M 8.832031 1.949219 L 8.90625 2.019531 L 8.90625 3.605469 L 8.832031 3.675781 C 8.789062 3.722656 8.726562 3.75 8.671875 3.75 C 8.617188 3.75 8.554688 3.722656 8.511719 3.675781 L 8.4375 3.605469 L 8.4375 2.019531 L 8.511719 1.949219 C 8.554688 1.902344 8.617188 1.875 8.671875 1.875 C 8.726562 1.875 8.789062 1.902344 8.832031 1.949219 Z M 3.289062 3.542969 C 3.316406 4.015625 3.539062 4.359375 3.949219 4.5625 C 4.160156 4.667969 4.1875 4.671875 4.453125 4.671875 C 4.71875 4.671875 4.746094 4.667969 4.957031 4.5625 C 5.367188 4.359375 5.589844 4.015625 5.617188 3.542969 L 5.632812 3.28125 L 7.492188 3.28125 L 7.507812 3.546875 C 7.519531 3.777344 7.539062 3.839844 7.628906 4.023438 C 7.753906 4.28125 7.929688 4.453125 8.195312 4.578125 C 8.375 4.664062 8.421875 4.671875 8.671875 4.671875 C 8.921875 4.671875 8.96875 4.664062 9.148438 4.578125 C 9.414062 4.453125 9.589844 4.28125 9.714844 4.023438 C 9.804688 3.839844 9.824219 3.777344 9.835938 3.546875 L 9.851562 3.277344 L 10.402344 3.289062 C 11.003906 3.296875 11.03125 3.304688 11.171875 3.5 C 11.234375 3.574219 11.234375 3.625 11.242188 4.367188 L 11.253906 5.15625 L 1.875 5.15625 L 1.875 4.414062 C 1.875 3.640625 1.886719 3.554688 2 3.429688 C 2.121094 3.300781 2.210938 3.285156 2.757812 3.28125 L 3.273438 3.28125 Z M 11.25 6.8125 L 11.25 7.53125 L 10.953125 7.511719 C 9.921875 7.445312 8.867188 7.921875 8.210938 8.746094 C 7.984375 9.027344 7.703125 9.585938 7.621094 9.910156 C 7.449219 10.570312 7.46875 11.230469 7.679688 11.839844 C 7.746094 12.035156 7.921875 12.398438 8.03125 12.5625 L 8.09375 12.65625 L 5.136719 12.648438 L 2.175781 12.640625 L 2.070312 12.554688 C 1.863281 12.402344 1.875 12.601562 1.875 9.183594 L 1.875 6.09375 L 11.25 6.09375 Z M 11.335938 8.503906 C 11.632812 8.585938 11.828125 8.671875 12.050781 8.820312 C 13.300781 9.632812 13.484375 11.382812 12.433594 12.433594 C 11.382812 13.484375 9.632812 13.300781 8.820312 12.050781 C 8.257812 11.195312 8.328125 10.058594 8.992188 9.273438 C 9.34375 8.859375 9.792969 8.59375 10.34375 8.476562 C 10.578125 8.429688 11.109375 8.445312 11.335938 8.503906 Z M 11.335938 8.503906 "/>
<path style=" stroke:none;fill-rule:nonzero;fill:rgb(0%,0%,0%);fill-opacity:1;" d="M 10.589844 8.945312 C 10.46875 9 10.347656 9.148438 10.328125 9.265625 C 10.320312 9.320312 10.3125 9.71875 10.320312 10.15625 C 10.328125 10.90625 10.328125 10.957031 10.390625 11.03125 C 10.539062 11.234375 10.542969 11.234375 11.25 11.234375 C 11.957031 11.234375 11.960938 11.234375 12.109375 11.03125 C 12.195312 10.917969 12.195312 10.644531 12.109375 10.53125 C 11.984375 10.351562 11.914062 10.328125 11.570312 10.320312 L 11.253906 10.304688 L 11.242188 9.757812 C 11.234375 9.152344 11.226562 9.125 11.039062 8.984375 C 10.941406 8.914062 10.707031 8.890625 10.589844 8.945312 Z M 10.589844 8.945312 "/>
</g>
</svg>
