<?xml version="1.0" encoding="UTF-8"?>
<svg xmlns="http://www.w3.org/2000/svg" xmlns:xlink="http://www.w3.org/1999/xlink" width="16px" height="16px" viewBox="0 0 16 16" version="1.1">
<g id="surface1">
<path style=" stroke:none;fill-rule:nonzero;fill:rgb(0%,0%,0%);fill-opacity:1;" d="M 13.605469 0.652344 C 13.570312 0.667969 13.5 0.730469 13.449219 0.789062 L 13.359375 0.898438 L 11.664062 1.230469 C 10.726562 1.414062 9.945312 1.574219 9.917969 1.597656 C 9.855469 1.648438 9.867188 1.742188 9.929688 1.777344 C 9.960938 1.792969 10.75 2.066406 11.679688 2.378906 L 13.375 2.945312 L 13.375 5.125 L 12.789062 5.125 C 12.371094 5.125 12.1875 5.136719 12.164062 5.164062 C 12.109375 5.214844 12.109375 15.285156 12.164062 15.335938 C 12.214844 15.390625 15.035156 15.390625 15.085938 15.335938 C 15.140625 15.285156 15.140625 5.214844 15.085938 5.164062 C 15.0625 5.136719 14.90625 5.125 14.585938 5.125 L 14.125 5.125 L 14.109375 0.84375 L 14.011719 0.746094 C 13.910156 0.644531 13.726562 0.601562 13.605469 0.652344 Z M 13.835938 0.914062 C 13.867188 0.941406 13.875 1.457031 13.875 3.039062 L 13.875 5.125 L 13.625 5.125 L 13.625 3.039062 C 13.625 0.875 13.625 0.875 13.75 0.875 C 13.777344 0.875 13.816406 0.890625 13.835938 0.914062 Z M 13.375 1.917969 L 13.375 2.679688 L 11.972656 2.207031 C 11.195312 1.945312 10.558594 1.726562 10.550781 1.714844 C 10.539062 1.703125 13.195312 1.171875 13.335938 1.160156 C 13.367188 1.15625 13.375 1.328125 13.375 1.917969 Z M 14.875 10.25 L 14.875 15.125 L 12.375 15.125 L 12.375 5.375 L 14.875 5.375 Z M 14.875 10.25 "/>
<path style=" stroke:none;fill-rule:nonzero;fill:rgb(0%,0%,0%);fill-opacity:1;" d="M 5.027344 1.273438 C 4.894531 1.34375 4.84375 1.394531 4.773438 1.527344 C 4.695312 1.679688 4.6875 1.722656 4.6875 2.039062 C 4.6875 2.375 4.6875 2.382812 4.78125 2.476562 C 4.859375 2.554688 4.875 2.589844 4.875 2.71875 L 4.875 2.867188 L 4.101562 2.882812 C 3.429688 2.890625 3.308594 2.898438 3.1875 2.949219 C 2.917969 3.0625 1.566406 3.910156 1.417969 4.054688 C 1.335938 4.136719 1.226562 4.300781 1.167969 4.421875 C 1.070312 4.625 1.046875 4.742188 0.859375 5.960938 C 0.746094 6.683594 0.65625 7.316406 0.65625 7.359375 C 0.65625 7.410156 0.695312 7.476562 0.746094 7.535156 L 0.835938 7.625 L 1.273438 7.625 C 1.800781 7.625 1.851562 7.601562 1.90625 7.324219 C 1.9375 7.179688 1.949219 7.15625 2 7.171875 C 2.148438 7.21875 2.375 7.023438 2.375 6.851562 C 2.375 6.804688 2.152344 6.585938 2.070312 6.546875 C 2.070312 6.546875 2.132812 6.160156 2.214844 5.6875 L 2.363281 4.828125 L 2.957031 4.449219 C 3.28125 4.242188 3.550781 4.074219 3.554688 4.078125 C 3.558594 4.078125 3.40625 4.617188 3.21875 5.277344 L 2.878906 6.472656 L 2.628906 8.964844 L 2.089844 10.148438 C 1.492188 11.460938 1.460938 11.546875 1.40625 11.886719 L 1.367188 12.125 L 1.160156 12.125 C 1.039062 12.125 0.933594 12.140625 0.914062 12.164062 C 0.859375 12.214844 0.859375 15.285156 0.914062 15.335938 C 0.964844 15.390625 3.785156 15.390625 3.835938 15.335938 C 3.890625 15.285156 3.890625 12.214844 3.835938 12.164062 C 3.816406 12.140625 3.714844 12.125 3.609375 12.125 L 3.417969 12.125 L 3.222656 11.925781 L 3.023438 11.726562 L 4.25 9.039062 L 4.304688 8.332031 C 4.339844 7.941406 4.371094 7.617188 4.378906 7.613281 C 4.398438 7.597656 5.695312 7.40625 5.710938 7.417969 C 5.714844 7.421875 5.570312 7.902344 5.390625 8.480469 C 5.15625 9.234375 5.050781 9.621094 5.023438 9.832031 L 4.988281 10.125 L 4.84375 10.125 C 4.765625 10.125 4.683594 10.140625 4.664062 10.164062 C 4.609375 10.214844 4.609375 15.285156 4.664062 15.335938 C 4.714844 15.390625 7.535156 15.390625 7.585938 15.335938 C 7.640625 15.285156 7.640625 10.214844 7.585938 10.164062 C 7.566406 10.140625 7.453125 10.125 7.296875 10.125 L 7.046875 10.125 L 6.8125 9.933594 C 6.683594 9.832031 6.566406 9.730469 6.550781 9.71875 C 6.539062 9.707031 6.726562 9.105469 6.96875 8.382812 C 7.367188 7.210938 7.414062 7.054688 7.417969 6.859375 C 7.417969 6.675781 7.40625 6.617188 7.328125 6.472656 C 7.210938 6.265625 7.039062 6.113281 6.835938 6.042969 C 6.710938 6.003906 6.617188 5.996094 6.367188 6.011719 C 6.199219 6.023438 6.039062 6.042969 6.007812 6.054688 C 5.96875 6.070312 5.960938 6.058594 5.976562 6 C 5.988281 5.960938 6.085938 5.503906 6.191406 4.984375 C 6.296875 4.46875 6.386719 4.039062 6.394531 4.035156 C 6.398438 4.027344 6.664062 4.269531 6.976562 4.570312 C 7.292969 4.871094 7.617188 5.152344 7.691406 5.195312 C 8.0625 5.414062 8.535156 5.425781 8.921875 5.226562 C 9.117188 5.128906 10.882812 3.664062 10.925781 3.570312 C 10.945312 3.523438 10.953125 3.460938 10.941406 3.417969 C 10.910156 3.304688 10.460938 2.695312 10.382812 2.660156 C 10.273438 2.609375 10.242188 2.617188 10.09375 2.714844 C 9.957031 2.804688 9.957031 2.804688 9.882812 2.746094 C 9.761719 2.65625 9.585938 2.667969 9.460938 2.777344 L 9.363281 2.867188 L 9.398438 3.035156 C 9.421875 3.125 9.429688 3.210938 9.414062 3.21875 C 9.398438 3.230469 9.132812 3.429688 8.824219 3.664062 L 8.257812 4.089844 L 7.671875 3.585938 C 7.351562 3.304688 7.007812 3.035156 6.914062 2.984375 C 6.734375 2.890625 6.734375 2.890625 6.117188 2.882812 C 5.542969 2.867188 5.5 2.867188 5.5 2.8125 C 5.5 2.78125 5.527344 2.746094 5.5625 2.734375 C 5.683594 2.695312 5.78125 2.539062 5.78125 2.375 C 5.78125 2.226562 5.785156 2.222656 5.914062 2.160156 C 6.101562 2.070312 6.164062 1.945312 6.179688 1.640625 C 6.195312 1.324219 6.164062 1.28125 5.929688 1.28125 C 5.835938 1.28125 5.6875 1.257812 5.59375 1.234375 C 5.34375 1.164062 5.214844 1.175781 5.027344 1.273438 Z M 5.5625 1.484375 C 5.65625 1.507812 5.78125 1.53125 5.835938 1.53125 C 5.933594 1.53125 5.9375 1.535156 5.9375 1.664062 C 5.9375 1.828125 5.867188 1.9375 5.761719 1.9375 C 5.71875 1.9375 5.601562 1.882812 5.496094 1.808594 C 5.289062 1.667969 5.199219 1.667969 5.167969 1.804688 C 5.160156 1.851562 5.148438 1.902344 5.144531 1.921875 C 5.136719 1.9375 5.089844 1.953125 5.035156 1.953125 L 4.929688 1.953125 L 4.945312 1.804688 C 4.957031 1.703125 4.984375 1.628906 5.035156 1.574219 C 5.167969 1.429688 5.285156 1.410156 5.5625 1.484375 Z M 5.523438 2.308594 C 5.515625 2.472656 5.507812 2.488281 5.421875 2.515625 C 5.261719 2.570312 5.25 2.585938 5.25 2.785156 C 5.25 2.945312 5.242188 2.972656 5.195312 2.960938 C 5.148438 2.953125 5.140625 2.914062 5.132812 2.71875 C 5.121094 2.398438 5.105469 2.351562 5.015625 2.332031 C 4.933594 2.308594 4.910156 2.238281 4.972656 2.199219 C 4.992188 2.191406 5.023438 2.195312 5.039062 2.214844 C 5.105469 2.28125 5.214844 2.253906 5.300781 2.144531 C 5.382812 2.039062 5.390625 2.039062 5.460938 2.085938 C 5.523438 2.128906 5.535156 2.152344 5.523438 2.308594 Z M 10.480469 3.164062 C 10.582031 3.304688 10.667969 3.433594 10.675781 3.453125 C 10.683594 3.476562 10.53125 3.621094 10.335938 3.777344 L 9.984375 4.070312 L 9.847656 3.917969 C 9.773438 3.835938 9.660156 3.707031 9.601562 3.632812 L 9.488281 3.492188 L 9.605469 3.386719 C 9.679688 3.320312 9.71875 3.261719 9.707031 3.230469 C 9.695312 3.203125 9.679688 3.128906 9.667969 3.058594 C 9.652344 2.960938 9.65625 2.9375 9.695312 2.9375 C 9.726562 2.9375 9.769531 2.976562 9.796875 3.03125 C 9.859375 3.152344 9.929688 3.148438 10.097656 3.019531 C 10.171875 2.960938 10.25 2.910156 10.265625 2.910156 C 10.285156 2.90625 10.382812 3.023438 10.480469 3.164062 Z M 5.011719 3.164062 C 5.066406 3.203125 5.058594 3.214844 4.925781 3.335938 C 4.761719 3.476562 4.75 3.539062 4.84375 3.71875 C 4.898438 3.832031 4.902344 3.863281 4.871094 4.164062 C 4.820312 4.664062 4.882812 5.414062 5.019531 5.949219 C 5.042969 6.050781 5.0625 6.136719 5.054688 6.144531 C 5.035156 6.164062 3.214844 6.351562 3.199219 6.335938 C 3.191406 6.324219 3.347656 5.742188 3.546875 5.035156 C 3.859375 3.945312 3.910156 3.742188 3.871094 3.699219 C 3.851562 3.675781 3.804688 3.65625 3.765625 3.664062 C 3.6875 3.679688 2.15625 4.652344 2.136719 4.699219 C 2.132812 4.71875 2.070312 5.042969 2.007812 5.421875 L 1.886719 6.109375 L 1.492188 6.117188 C 1.273438 6.121094 1.09375 6.117188 1.09375 6.109375 C 1.09375 6.097656 1.144531 5.773438 1.203125 5.386719 C 1.324219 4.601562 1.382812 4.445312 1.605469 4.226562 C 1.742188 4.089844 3.046875 3.28125 3.242188 3.203125 C 3.429688 3.132812 3.445312 3.132812 4.222656 3.128906 C 4.785156 3.125 4.96875 3.132812 5.011719 3.164062 Z M 6.726562 3.175781 C 6.835938 3.210938 7.042969 3.371094 7.539062 3.800781 C 7.902344 4.117188 8.222656 4.375 8.246094 4.375 C 8.273438 4.375 8.507812 4.210938 8.773438 4.011719 C 9.039062 3.816406 9.265625 3.65625 9.28125 3.664062 C 9.296875 3.667969 9.414062 3.796875 9.546875 3.953125 L 9.785156 4.234375 L 9.707031 4.296875 C 8.757812 5.078125 8.707031 5.109375 8.328125 5.109375 C 7.9375 5.109375 7.847656 5.054688 7.050781 4.296875 C 6.664062 3.929688 6.351562 3.65625 6.316406 3.65625 C 6.285156 3.65625 6.242188 3.675781 6.226562 3.695312 C 6.210938 3.714844 6.101562 4.191406 5.984375 4.75 C 5.867188 5.308594 5.769531 5.773438 5.765625 5.777344 C 5.746094 5.792969 5.601562 5.289062 5.550781 5.046875 C 5.492188 4.78125 5.4375 4.277344 5.4375 4.0625 C 5.4375 3.945312 5.460938 3.863281 5.53125 3.742188 C 5.585938 3.648438 5.625 3.550781 5.625 3.519531 C 5.625 3.492188 5.570312 3.40625 5.496094 3.328125 C 5.429688 3.253906 5.378906 3.175781 5.390625 3.15625 C 5.425781 3.101562 6.554688 3.117188 6.726562 3.175781 Z M 5.300781 3.472656 C 5.355469 3.535156 5.355469 3.539062 5.269531 3.695312 C 5.179688 3.851562 5.179688 3.855469 5.195312 4.230469 C 5.234375 4.949219 5.417969 5.691406 5.726562 6.34375 C 5.851562 6.621094 5.863281 6.652344 5.832031 6.761719 L 5.796875 6.882812 L 5.636719 6.730469 C 5.496094 6.597656 5.464844 6.542969 5.378906 6.28125 C 5.148438 5.585938 5.054688 4.832031 5.117188 4.191406 C 5.152344 3.859375 5.148438 3.800781 5.105469 3.6875 C 5.054688 3.5625 5.054688 3.554688 5.125 3.484375 C 5.210938 3.390625 5.226562 3.386719 5.300781 3.472656 Z M 6.898438 6.351562 C 7.046875 6.449219 7.148438 6.625 7.175781 6.820312 C 7.1875 6.933594 7.125 7.148438 6.742188 8.28125 L 6.289062 9.609375 L 5.9375 9.625 C 5.648438 9.636719 5.578125 9.648438 5.550781 9.695312 C 5.523438 9.734375 5.523438 9.765625 5.550781 9.804688 C 5.578125 9.851562 5.644531 9.859375 5.972656 9.867188 L 6.359375 9.878906 L 6.640625 10.121094 L 5.945312 10.125 L 5.25 10.125 L 5.25 10.035156 C 5.25 9.832031 5.355469 9.429688 5.683594 8.375 C 5.894531 7.710938 6.023438 7.238281 6.015625 7.195312 C 6.007812 7.15625 6.027344 7.007812 6.066406 6.867188 L 6.132812 6.601562 L 6.0625 6.46875 C 6.023438 6.398438 6.007812 6.324219 6.023438 6.308594 C 6.054688 6.277344 6.296875 6.257812 6.566406 6.261719 C 6.734375 6.265625 6.796875 6.285156 6.898438 6.351562 Z M 1.824219 6.507812 C 1.804688 6.644531 1.808594 6.648438 1.949219 6.765625 C 2.113281 6.898438 2.101562 6.953125 1.929688 6.898438 C 1.773438 6.851562 1.730469 6.894531 1.683594 7.160156 L 1.648438 7.375 L 1.273438 7.375 C 1.042969 7.375 0.90625 7.363281 0.90625 7.34375 C 0.90625 7.289062 1.035156 6.457031 1.046875 6.414062 C 1.054688 6.382812 1.164062 6.375 1.449219 6.375 L 1.84375 6.375 Z M 5.226562 6.585938 C 5.273438 6.710938 5.335938 6.792969 5.503906 6.945312 L 5.722656 7.148438 L 5.617188 7.164062 C 5.5625 7.179688 5.222656 7.226562 4.859375 7.28125 C 4.5 7.335938 4.1875 7.398438 4.164062 7.414062 C 4.144531 7.4375 4.101562 7.746094 4.066406 8.210938 L 4.003906 8.976562 L 3.542969 9.976562 C 3.289062 10.53125 3.023438 11.128906 2.941406 11.304688 L 2.796875 11.621094 L 2.363281 11.632812 C 1.992188 11.640625 1.925781 11.648438 1.894531 11.695312 C 1.867188 11.734375 1.867188 11.765625 1.894531 11.804688 C 1.925781 11.851562 1.992188 11.859375 2.382812 11.867188 L 2.832031 11.878906 L 2.953125 12 L 3.074219 12.125 L 1.617188 12.125 L 1.640625 11.992188 C 1.691406 11.667969 1.777344 11.445312 2.308594 10.273438 L 2.871094 9.039062 L 2.984375 7.867188 C 3.046875 7.226562 3.109375 6.679688 3.121094 6.65625 C 3.140625 6.617188 3.351562 6.585938 4.019531 6.511719 C 4.496094 6.457031 4.953125 6.414062 5.027344 6.417969 C 5.164062 6.421875 5.164062 6.425781 5.226562 6.585938 Z M 7.375 12.75 L 7.375 15.125 L 4.875 15.125 L 4.875 10.375 L 7.375 10.375 Z M 3.625 13.75 L 3.625 15.125 L 1.125 15.125 L 1.125 12.375 L 3.625 12.375 Z M 3.625 13.75 "/>
<path style=" stroke:none;fill-rule:nonzero;fill:rgb(0%,0%,0%);fill-opacity:1;" d="M 8.414062 7.664062 C 8.359375 7.714844 8.359375 15.285156 8.414062 15.335938 C 8.464844 15.390625 11.285156 15.390625 11.335938 15.335938 C 11.390625 15.285156 11.390625 7.714844 11.335938 7.664062 C 11.285156 7.609375 8.464844 7.609375 8.414062 7.664062 Z M 11.125 11.5 L 11.125 15.125 L 8.625 15.125 L 8.625 7.875 L 11.125 7.875 Z M 11.125 11.5 "/>
</g>
</svg>
