<?xml version="1.0" encoding="UTF-8"?>
<svg xmlns="http://www.w3.org/2000/svg" xmlns:xlink="http://www.w3.org/1999/xlink" width="15px" height="16px" viewBox="0 0 15 15" version="1.1">
<g id="surface1">
<path style=" stroke:none;fill-rule:nonzero;fill:rgb(0%,0%,0%);fill-opacity:1;" d="M 11.117188 0.03125 C 11.082031 0.0390625 11.019531 0.09375 10.976562 0.148438 L 10.898438 0.242188 L 10.898438 1.601562 L 10.777344 1.625 C 10.527344 1.664062 10.429688 1.800781 10.429688 2.125 L 10.429688 2.3125 L 8.863281 2.3125 C 7.761719 2.3125 7.277344 2.324219 7.226562 2.347656 C 7.074219 2.414062 7.0625 2.648438 7.203125 2.722656 C 7.242188 2.742188 7.785156 2.753906 8.84375 2.753906 L 10.429688 2.753906 L 10.429688 3.3125 L 2.046875 3.296875 L 1.976562 3.214844 C 1.882812 3.105469 1.882812 2.960938 1.976562 2.851562 L 2.046875 2.769531 L 4.234375 2.757812 L 6.429688 2.753906 L 6.496094 2.6875 C 6.585938 2.605469 6.582031 2.476562 6.488281 2.382812 L 6.414062 2.3125 L 4.199219 2.320312 L 1.976562 2.328125 L 1.859375 2.394531 C 1.71875 2.46875 1.5625 2.636719 1.507812 2.773438 C 1.453125 2.898438 1.453125 3.167969 1.507812 3.292969 C 1.5625 3.429688 1.71875 3.597656 1.859375 3.671875 C 1.972656 3.734375 2.019531 3.734375 2.957031 3.75 L 3.933594 3.765625 L 3.761719 3.878906 C 3.539062 4.023438 3.121094 4.445312 2.964844 4.679688 C 2.691406 5.082031 2.523438 5.5 2.445312 5.96875 C 2.40625 6.195312 2.398438 6.414062 2.40625 7 C 2.417969 7.746094 2.417969 7.75 2.496094 7.898438 C 2.621094 8.136719 2.835938 8.304688 3.097656 8.375 C 3.21875 8.40625 3.21875 8.414062 3.25 8.578125 C 3.390625 9.285156 3.859375 9.933594 4.429688 10.226562 C 4.578125 10.304688 4.578125 10.390625 4.433594 10.425781 C 2.5625 10.910156 2.382812 10.960938 2.234375 11.058594 C 1.929688 11.265625 1.839844 11.453125 1.757812 12.101562 C 1.671875 12.78125 1.671875 12.796875 1.765625 12.878906 C 1.867188 12.96875 1.9375 12.96875 2.035156 12.882812 C 2.105469 12.824219 2.117188 12.78125 2.179688 12.273438 C 2.257812 11.667969 2.296875 11.546875 2.457031 11.4375 C 2.527344 11.390625 2.867188 11.289062 3.472656 11.132812 C 4.742188 10.800781 4.773438 10.789062 4.867188 10.6875 C 4.914062 10.636719 4.960938 10.566406 4.96875 10.53125 C 4.984375 10.464844 4.996094 10.460938 5.109375 10.484375 C 5.265625 10.507812 5.898438 10.507812 6.050781 10.480469 C 6.167969 10.460938 6.167969 10.460938 6.226562 10.582031 C 6.257812 10.652344 6.324219 10.726562 6.371094 10.757812 C 6.421875 10.785156 6.9375 10.933594 7.523438 11.085938 C 8.109375 11.242188 8.609375 11.378906 8.636719 11.394531 C 8.703125 11.429688 8.832031 11.570312 8.875 11.65625 C 8.898438 11.707031 9.257812 14.394531 9.257812 14.539062 C 9.257812 14.546875 8.988281 14.5625 8.65625 14.5625 L 8.054688 14.5625 L 8.054688 13.886719 C 8.054688 13.175781 8.046875 13.09375 7.917969 13.039062 C 7.820312 12.992188 7.78125 13 7.695312 13.070312 L 7.617188 13.128906 L 7.617188 14.5625 L 3.546875 14.5625 L 3.546875 13.152344 L 3.46875 13.074219 C 3.410156 13.015625 3.378906 13.003906 3.300781 13.019531 C 3.121094 13.054688 3.121094 13.058594 3.109375 13.84375 L 3.101562 14.5625 L 1.90625 14.5625 L 1.90625 14.492188 C 1.90625 14.457031 1.925781 14.289062 1.949219 14.121094 C 2.003906 13.710938 2.003906 13.613281 1.9375 13.53125 C 1.867188 13.445312 1.71875 13.445312 1.632812 13.53125 C 1.582031 13.578125 1.5625 13.667969 1.519531 13.996094 C 1.445312 14.546875 1.449219 14.675781 1.53125 14.796875 C 1.566406 14.851562 1.644531 14.921875 1.699219 14.949219 C 1.796875 14.996094 2.03125 15 5.613281 14.992188 L 9.425781 14.984375 L 9.53125 14.902344 C 9.730469 14.75 9.730469 14.769531 9.527344 13.125 C 9.335938 11.5625 9.3125 11.464844 9.132812 11.238281 C 8.960938 11.03125 8.777344 10.957031 7.707031 10.679688 C 6.636719 10.398438 6.59375 10.386719 6.59375 10.34375 C 6.59375 10.324219 6.652344 10.273438 6.730469 10.230469 C 6.945312 10.105469 7.273438 9.832031 7.398438 9.671875 C 7.664062 9.332031 7.855469 8.914062 7.90625 8.5625 L 7.925781 8.425781 L 8.105469 8.363281 C 8.417969 8.257812 8.632812 8.046875 8.714844 7.753906 C 8.773438 7.554688 8.777344 6.398438 8.71875 6.007812 C 8.585938 5.148438 8.078125 4.335938 7.375 3.863281 L 7.203125 3.75 L 10.429688 3.75 L 10.429688 3.941406 C 10.429688 4.261719 10.527344 4.398438 10.777344 4.441406 L 10.898438 4.460938 L 10.898438 7.117188 L 10.976562 7.175781 C 11.019531 7.210938 11.070312 7.234375 11.09375 7.234375 C 11.167969 7.234375 11.273438 7.167969 11.304688 7.097656 C 11.328125 7.050781 11.335938 6.621094 11.335938 5.742188 L 11.335938 4.453125 L 12.65625 4.453125 L 12.65625 5.773438 L 12.273438 5.773438 C 11.933594 5.773438 11.890625 5.777344 11.835938 5.828125 C 11.757812 5.910156 11.757812 6.066406 11.839844 6.140625 C 11.890625 6.1875 11.957031 6.195312 12.277344 6.203125 L 12.65625 6.21875 L 12.65625 7.53125 L 12.273438 7.53125 C 11.933594 7.53125 11.890625 7.535156 11.835938 7.585938 C 11.75 7.675781 11.757812 7.832031 11.851562 7.90625 C 11.921875 7.960938 11.96875 7.96875 12.292969 7.96875 L 12.65625 7.96875 L 12.65625 9.289062 L 12.28125 9.289062 C 11.945312 9.289062 11.898438 9.292969 11.84375 9.34375 C 11.75 9.433594 11.753906 9.585938 11.851562 9.664062 C 11.921875 9.71875 11.96875 9.726562 12.292969 9.726562 L 12.65625 9.726562 L 12.65625 11.046875 L 12.28125 11.046875 C 11.925781 11.046875 11.898438 11.046875 11.84375 11.113281 C 11.75 11.210938 11.757812 11.347656 11.851562 11.421875 C 11.921875 11.476562 11.96875 11.484375 12.292969 11.484375 L 12.65625 11.484375 L 12.65625 12.804688 L 12.28125 12.804688 C 11.925781 12.804688 11.898438 12.804688 11.84375 12.871094 C 11.75 12.96875 11.757812 13.105469 11.851562 13.179688 C 11.921875 13.234375 11.96875 13.242188 12.292969 13.242188 L 12.65625 13.242188 L 12.65625 14.5625 L 11.335938 14.5625 L 11.332031 11.21875 L 11.324219 7.875 L 11.253906 7.820312 C 11.164062 7.746094 11.070312 7.75 10.976562 7.824219 L 10.898438 7.882812 L 10.898438 14.765625 L 11 14.875 L 11.097656 14.984375 L 11.976562 14.984375 C 12.824219 14.984375 12.859375 14.984375 12.941406 14.921875 C 12.984375 14.890625 13.039062 14.820312 13.058594 14.761719 C 13.085938 14.6875 13.09375 13.4375 13.09375 9.558594 L 13.09375 4.460938 L 13.21875 4.4375 C 13.300781 4.421875 13.375 4.386719 13.4375 4.320312 L 13.535156 4.226562 L 13.535156 1.839844 L 13.4375 1.742188 C 13.375 1.679688 13.300781 1.640625 13.21875 1.625 L 13.09375 1.605469 L 13.09375 0.964844 C 13.09375 0.242188 13.078125 0.15625 12.914062 0.0585938 C 12.824219 0.00390625 12.769531 0 11.996094 0.00390625 C 11.546875 0.00390625 11.148438 0.015625 11.117188 0.03125 Z M 12.65625 1.023438 L 12.65625 1.609375 L 11.335938 1.609375 L 11.335938 0.4375 L 12.65625 0.4375 Z M 13.09375 2.429688 L 13.09375 2.8125 L 12.511719 2.8125 C 11.96875 2.8125 11.925781 2.816406 11.851562 2.875 C 11.796875 2.917969 11.777344 2.960938 11.777344 3.03125 C 11.777344 3.101562 11.796875 3.148438 11.851562 3.191406 C 11.925781 3.25 11.96875 3.25 12.511719 3.25 L 13.09375 3.25 L 13.09375 4.015625 L 10.867188 4.015625 L 10.867188 2.050781 L 13.09375 2.050781 Z M 6.285156 3.835938 C 7.46875 4.15625 8.320312 5.265625 8.320312 6.488281 L 8.320312 6.703125 L 8.183594 6.648438 C 8.101562 6.617188 8.019531 6.589844 7.992188 6.578125 C 7.953125 6.570312 7.9375 6.53125 7.9375 6.441406 C 7.9375 6.289062 7.871094 6.148438 7.765625 6.085938 C 7.703125 6.046875 7.609375 6.035156 7.394531 6.035156 L 7.109375 6.035156 L 6.8125 5.742188 C 6.519531 5.453125 6.507812 5.449219 6.375 5.449219 C 6.242188 5.449219 6.226562 5.453125 5.949219 5.726562 L 5.664062 6.007812 L 4.574219 6.007812 C 3.402344 6.007812 3.359375 6.011719 3.277344 6.160156 C 3.257812 6.195312 3.234375 6.304688 3.226562 6.398438 L 3.207031 6.570312 L 3.0625 6.613281 C 2.984375 6.636719 2.898438 6.671875 2.878906 6.6875 C 2.820312 6.734375 2.832031 6.242188 2.898438 5.933594 C 3.113281 4.878906 3.949219 4.039062 5.007812 3.804688 C 5.351562 3.734375 5.945312 3.746094 6.285156 3.835938 Z M 6.933594 6.441406 C 6.96875 6.460938 7.109375 6.476562 7.25 6.476562 L 7.5 6.476562 L 7.5 7.417969 C 7.5 8.5 7.484375 8.632812 7.292969 9.023438 C 7.191406 9.226562 7.121094 9.320312 6.917969 9.523438 C 6.523438 9.910156 6.125 10.078125 5.582031 10.078125 C 5.257812 10.078125 5 10.019531 4.730469 9.886719 C 4.226562 9.640625 3.835938 9.148438 3.707031 8.609375 C 3.671875 8.464844 3.664062 8.210938 3.664062 7.433594 L 3.664062 6.445312 L 4.71875 6.445312 C 5.574219 6.445312 5.789062 6.4375 5.851562 6.40625 C 5.898438 6.382812 6.03125 6.261719 6.152344 6.140625 L 6.371094 5.917969 L 6.621094 6.164062 C 6.757812 6.296875 6.898438 6.425781 6.933594 6.441406 Z M 3.222656 7.484375 C 3.222656 7.984375 3.21875 7.992188 3.046875 7.871094 C 2.777344 7.691406 2.78125 7.269531 3.054688 7.09375 C 3.222656 6.984375 3.222656 6.988281 3.222656 7.484375 Z M 8.101562 7.089844 C 8.210938 7.15625 8.320312 7.355469 8.320312 7.488281 C 8.316406 7.625 8.21875 7.816406 8.109375 7.882812 C 7.9375 7.984375 7.9375 7.984375 7.9375 7.484375 C 7.9375 7.164062 7.949219 7.03125 7.972656 7.03125 C 7.992188 7.03125 8.046875 7.058594 8.101562 7.089844 Z M 8.101562 7.089844 "/>
<path style=" stroke:none;fill-rule:nonzero;fill:rgb(0%,0%,0%);fill-opacity:1;" d="M 4.492188 7.152344 C 4.460938 7.167969 4.414062 7.214844 4.398438 7.253906 C 4.355469 7.347656 4.355469 7.625 4.398438 7.71875 C 4.464844 7.859375 4.703125 7.871094 4.773438 7.738281 C 4.824219 7.640625 4.8125 7.28125 4.753906 7.210938 C 4.691406 7.136719 4.578125 7.109375 4.492188 7.152344 Z M 4.492188 7.152344 "/>
<path style=" stroke:none;fill-rule:nonzero;fill:rgb(0%,0%,0%);fill-opacity:1;" d="M 6.503906 7.140625 C 6.382812 7.183594 6.359375 7.242188 6.359375 7.46875 C 6.359375 7.742188 6.40625 7.832031 6.5625 7.832031 C 6.71875 7.832031 6.796875 7.71875 6.796875 7.484375 C 6.796875 7.308594 6.789062 7.28125 6.710938 7.203125 C 6.625 7.117188 6.589844 7.109375 6.503906 7.140625 Z M 6.503906 7.140625 "/>
<path style=" stroke:none;fill-rule:nonzero;fill:rgb(0%,0%,0%);fill-opacity:1;" d="M 4.964844 8.921875 C 4.871094 9.011719 4.867188 9.136719 4.960938 9.222656 C 5.15625 9.40625 5.898438 9.421875 6.164062 9.246094 C 6.308594 9.15625 6.289062 8.941406 6.140625 8.871094 C 6.082031 8.847656 6.03125 8.851562 5.894531 8.890625 C 5.679688 8.945312 5.4375 8.949219 5.273438 8.890625 C 5.101562 8.828125 5.046875 8.835938 4.964844 8.921875 Z M 4.964844 8.921875 "/>
</g>
</svg>
