<?xml version="1.0" encoding="UTF-8"?>
<svg xmlns="http://www.w3.org/2000/svg" xmlns:xlink="http://www.w3.org/1999/xlink" width="16px" height="16px" viewBox="0 0 16 16" version="1.1">
<g id="surface1">
<path style=" stroke:none;fill-rule:nonzero;fill:rgb(0%,0%,0%);fill-opacity:1;" d="M 2.359375 0.554688 C 1.453125 0.746094 0.738281 1.46875 0.550781 2.382812 C 0.507812 2.597656 0.5 3.222656 0.5 8 C 0.5 13.878906 0.492188 13.601562 0.679688 14.046875 C 0.914062 14.601562 1.398438 15.085938 1.957031 15.320312 C 2.398438 15.507812 2.125 15.5 8 15.5 C 13.808594 15.5 13.585938 15.507812 14.011719 15.339844 C 14.546875 15.132812 15.070312 14.621094 15.308594 14.082031 C 15.496094 13.65625 15.480469 14.097656 15.492188 8.109375 C 15.503906 2.121094 15.507812 2.402344 15.320312 1.957031 C 15.085938 1.394531 14.5625 0.875 14.011719 0.660156 C 13.585938 0.492188 13.8125 0.5 7.976562 0.503906 C 3.304688 0.507812 2.550781 0.511719 2.359375 0.554688 Z M 13.699219 1.210938 C 14.230469 1.414062 14.609375 1.796875 14.789062 2.304688 L 14.859375 2.515625 L 14.859375 13.484375 L 14.789062 13.691406 C 14.609375 14.210938 14.210938 14.609375 13.695312 14.789062 L 13.484375 14.859375 L 2.515625 14.859375 L 2.308594 14.789062 C 1.792969 14.609375 1.390625 14.207031 1.210938 13.695312 L 1.140625 13.484375 L 1.140625 2.515625 L 1.210938 2.304688 C 1.417969 1.710938 1.953125 1.25 2.5625 1.148438 C 2.605469 1.136719 5.085938 1.132812 8.078125 1.136719 L 13.515625 1.140625 Z M 13.699219 1.210938 "/>
<path style=" stroke:none;fill-rule:nonzero;fill:rgb(0%,0%,0%);fill-opacity:1;" d="M 7.515625 1.769531 C 5.0625 2.03125 3.171875 3.996094 3.011719 6.445312 C 2.988281 6.824219 3.019531 6.945312 3.160156 7.015625 C 3.289062 7.085938 12.710938 7.085938 12.839844 7.015625 C 12.980469 6.945312 13.011719 6.824219 12.988281 6.445312 C 12.839844 4.167969 11.195312 2.289062 8.953125 1.84375 C 8.648438 1.78125 7.804688 1.738281 7.515625 1.769531 Z M 8.890625 2.46875 C 9.46875 2.597656 9.976562 2.816406 10.46875 3.140625 C 10.769531 3.335938 11.410156 3.976562 11.601562 4.273438 C 12.023438 4.90625 12.265625 5.566406 12.351562 6.304688 L 12.367188 6.4375 L 9.539062 6.4375 L 9.480469 6.261719 C 9.339844 5.808594 8.941406 5.414062 8.476562 5.265625 L 8.3125 5.210938 L 8.3125 5.007812 C 8.3125 4.78125 8.257812 4.652344 8.140625 4.601562 C 8.039062 4.554688 7.960938 4.554688 7.859375 4.601562 C 7.742188 4.652344 7.6875 4.78125 7.6875 5.011719 L 7.6875 5.210938 L 7.511719 5.269531 C 7.058594 5.410156 6.664062 5.808594 6.515625 6.273438 L 6.460938 6.4375 L 3.632812 6.4375 L 3.648438 6.304688 C 3.820312 4.855469 4.621094 3.648438 5.886719 2.925781 C 6.320312 2.679688 6.945312 2.472656 7.453125 2.40625 C 7.796875 2.363281 8.566406 2.398438 8.890625 2.46875 Z M 8.273438 5.859375 C 8.476562 5.921875 8.667969 6.0625 8.78125 6.242188 C 8.835938 6.320312 8.875 6.398438 8.875 6.414062 C 8.875 6.425781 8.480469 6.4375 8 6.4375 C 7.519531 6.4375 7.125 6.425781 7.125 6.414062 C 7.125 6.398438 7.164062 6.320312 7.214844 6.242188 C 7.4375 5.898438 7.867188 5.738281 8.273438 5.859375 Z M 8.273438 5.859375 "/>
<path style=" stroke:none;fill-rule:nonzero;fill:rgb(0%,0%,0%);fill-opacity:1;" d="M 7.847656 3.042969 C 7.730469 3.109375 7.691406 3.214844 7.6875 3.460938 C 7.6875 3.722656 7.726562 3.832031 7.847656 3.894531 C 8.007812 3.976562 8.207031 3.917969 8.273438 3.765625 C 8.296875 3.722656 8.3125 3.585938 8.3125 3.46875 C 8.3125 3.214844 8.273438 3.105469 8.152344 3.042969 C 8.046875 2.992188 7.945312 2.992188 7.847656 3.042969 Z M 7.847656 3.042969 "/>
<path style=" stroke:none;fill-rule:nonzero;fill:rgb(0%,0%,0%);fill-opacity:1;" d="M 6.117188 3.503906 C 6.050781 3.539062 5.96875 3.695312 5.96875 3.78125 C 5.96875 3.871094 6.175781 4.238281 6.257812 4.296875 C 6.4375 4.421875 6.703125 4.304688 6.742188 4.085938 C 6.757812 3.988281 6.738281 3.9375 6.628906 3.75 C 6.554688 3.632812 6.472656 3.519531 6.4375 3.5 C 6.363281 3.460938 6.1875 3.460938 6.117188 3.503906 Z M 6.117188 3.503906 "/>
<path style=" stroke:none;fill-rule:nonzero;fill:rgb(0%,0%,0%);fill-opacity:1;" d="M 9.554688 3.503906 C 9.523438 3.519531 9.445312 3.632812 9.371094 3.753906 C 9.261719 3.9375 9.242188 3.988281 9.257812 4.085938 C 9.296875 4.304688 9.5625 4.421875 9.742188 4.296875 C 9.824219 4.238281 10.03125 3.871094 10.03125 3.78125 C 10.03125 3.691406 9.949219 3.539062 9.878906 3.5 C 9.800781 3.460938 9.625 3.460938 9.554688 3.503906 Z M 9.554688 3.503906 "/>
<path style=" stroke:none;fill-rule:nonzero;fill:rgb(0%,0%,0%);fill-opacity:1;" d="M 4.867188 4.769531 C 4.761719 4.824219 4.71875 4.902344 4.71875 5.03125 C 4.71875 5.179688 4.761719 5.238281 5 5.378906 C 5.1875 5.488281 5.238281 5.507812 5.335938 5.492188 C 5.492188 5.464844 5.59375 5.347656 5.59375 5.195312 C 5.59375 5.035156 5.535156 4.960938 5.300781 4.832031 C 5.082031 4.710938 4.996094 4.695312 4.867188 4.769531 Z M 4.867188 4.769531 "/>
<path style=" stroke:none;fill-rule:nonzero;fill:rgb(0%,0%,0%);fill-opacity:1;" d="M 10.703125 4.828125 C 10.46875 4.960938 10.40625 5.039062 10.40625 5.191406 C 10.40625 5.347656 10.507812 5.464844 10.664062 5.492188 C 10.761719 5.507812 10.8125 5.488281 11 5.378906 C 11.238281 5.238281 11.28125 5.179688 11.28125 5.03125 C 11.28125 4.898438 11.234375 4.820312 11.125 4.765625 C 10.992188 4.695312 10.914062 4.710938 10.703125 4.828125 Z M 10.703125 4.828125 "/>
<path style=" stroke:none;fill-rule:nonzero;fill:rgb(0%,0%,0%);fill-opacity:1;" d="M 4.570312 8.25 C 3.925781 8.367188 3.386719 8.820312 3.132812 9.460938 C 3.054688 9.652344 3.050781 9.710938 3.050781 10.09375 L 3.050781 10.515625 L 3.414062 11.65625 C 3.617188 12.285156 3.824219 12.886719 3.875 12.992188 C 3.984375 13.226562 4.25 13.503906 4.488281 13.632812 C 4.804688 13.800781 5.210938 13.851562 5.546875 13.765625 C 6.117188 13.617188 6.550781 13.148438 6.65625 12.566406 C 6.695312 12.332031 6.675781 12.105469 6.574219 11.769531 C 6.472656 11.421875 6.476562 11.242188 6.609375 10.863281 C 6.800781 10.3125 6.8125 9.917969 6.65625 9.476562 C 6.464844 8.933594 5.996094 8.484375 5.441406 8.3125 C 5.207031 8.238281 4.800781 8.210938 4.570312 8.25 Z M 5.171875 8.890625 C 5.679688 9.023438 6.042969 9.414062 6.125 9.917969 C 6.160156 10.132812 6.121094 10.386719 6.019531 10.644531 C 5.847656 11.070312 5.835938 11.480469 5.984375 11.984375 C 6.042969 12.183594 6.0625 12.304688 6.050781 12.398438 C 5.964844 13.035156 5.316406 13.375 4.773438 13.070312 C 4.492188 12.914062 4.453125 12.828125 4.03125 11.515625 L 3.648438 10.328125 L 3.664062 10.046875 C 3.671875 9.824219 3.695312 9.726562 3.757812 9.585938 C 3.914062 9.25 4.246094 8.976562 4.609375 8.886719 C 4.824219 8.835938 4.957031 8.835938 5.171875 8.890625 Z M 5.171875 8.890625 "/>
<path style=" stroke:none;fill-rule:nonzero;fill:rgb(0%,0%,0%);fill-opacity:1;" d="M 10.789062 8.25 C 10.257812 8.347656 9.738281 8.710938 9.488281 9.164062 C 9.1875 9.710938 9.160156 10.1875 9.390625 10.863281 C 9.523438 11.242188 9.527344 11.421875 9.425781 11.769531 C 9.324219 12.105469 9.304688 12.332031 9.34375 12.566406 C 9.5 13.421875 10.347656 13.976562 11.171875 13.765625 C 11.578125 13.660156 11.960938 13.351562 12.125 12.992188 C 12.175781 12.882812 12.382812 12.285156 12.585938 11.65625 L 12.953125 10.515625 L 12.953125 10.109375 C 12.953125 9.765625 12.941406 9.671875 12.882812 9.492188 C 12.695312 8.949219 12.210938 8.480469 11.664062 8.3125 C 11.425781 8.238281 11.019531 8.210938 10.789062 8.25 Z M 11.351562 8.878906 C 11.726562 8.957031 12.082031 9.238281 12.242188 9.585938 C 12.304688 9.726562 12.328125 9.824219 12.335938 10.046875 L 12.351562 10.328125 L 11.96875 11.515625 C 11.546875 12.828125 11.507812 12.914062 11.226562 13.070312 C 10.691406 13.371094 10.050781 13.042969 9.953125 12.417969 C 9.9375 12.332031 9.960938 12.183594 10.03125 11.910156 C 10.160156 11.414062 10.152344 11.132812 10.003906 10.710938 C 9.867188 10.335938 9.835938 10.152344 9.875 9.929688 C 9.957031 9.421875 10.3125 9.027344 10.816406 8.894531 C 11.023438 8.835938 11.136719 8.835938 11.351562 8.878906 Z M 11.351562 8.878906 "/>
</g>
</svg>
